<?xml version="1.0" standalone="no"?>
<!DOCTYPE svg PUBLIC "-//W3C//DTD SVG 20010904//EN"
 "http://www.w3.org/TR/2001/REC-SVG-20010904/DTD/svg10.dtd">
<svg version="1.0" xmlns="http://www.w3.org/2000/svg"
 width="624.000000pt" height="624.000000pt" viewBox="0 0 624.000000 624.000000"
 preserveAspectRatio="xMidYMid meet">
<metadata>
Created by potrace 1.14, written by Peter Selinger 2001-2017
</metadata>
<g transform="translate(0.000000,624.000000) scale(0.100000,-0.100000)"
fill="#000000" stroke="none">
<path d="M1177 6220 c-56 -45 -56 -39 -53 -835 2 -537 6 -745 15 -785 45 -199
122 -313 280 -417 47 -31 96 -68 109 -82 28 -33 100 -177 106 -216 3 -16 9
-41 12 -55 4 -14 8 -862 9 -1885 1 -1023 3 -1863 4 -1867 0 -3 13 -20 27 -37
63 -75 212 -34 230 64 8 46 10 125 2 125 -4 0 -3 13 2 30 5 17 5 30 0 30 -5 0
-5 13 0 30 5 17 6 30 2 30 -8 0 -7 68 1 76 3 3 2 16 -3 28 -4 13 -4 29 0 36 5
8 5 21 0 30 -5 9 -5 22 0 30 5 8 5 21 0 30 -5 9 -5 22 0 30 5 8 5 21 0 30 -5
9 -5 22 0 30 5 8 5 21 0 30 -5 9 -5 22 0 30 5 8 5 21 0 30 -5 9 -5 22 0 30 5
8 5 21 0 30 -5 9 -5 22 0 30 5 8 5 21 0 30 -5 9 -5 22 0 30 5 8 5 21 0 30 -5
9 -5 22 0 30 5 8 5 21 0 30 -4 8 -4 22 0 31 5 8 5 20 1 27 -4 7 -5 35 -1 62 4
27 3 55 -1 62 -4 6 -4 19 1 28 5 9 5 22 0 30 -5 8 -5 21 0 30 5 9 5 22 0 30
-5 8 -5 21 0 30 5 9 5 22 0 30 -5 8 -5 21 0 30 5 9 5 22 0 30 -5 8 -5 21 0 30
5 9 5 22 0 30 -5 8 -5 21 0 30 5 9 5 22 0 30 -5 8 -5 21 0 30 5 9 5 22 0 30
-5 8 -5 21 0 30 4 8 4 22 0 31 -5 8 -5 21 0 29 5 8 5 21 0 30 -5 9 -5 22 0 30
4 7 4 23 0 36 -5 12 -6 25 -3 28 8 8 9 76 1 76 -4 0 -3 14 2 30 5 17 5 30 0
30 -5 0 -5 13 0 30 5 17 5 30 0 30 -5 0 -5 13 0 30 5 17 5 30 0 30 -5 0 -5 13
0 30 5 17 5 30 0 30 -5 0 -5 13 0 30 5 17 5 30 0 30 -5 0 -5 13 0 30 5 19 5
30 -1 30 -6 0 -7 5 -4 10 4 6 6 31 5 55 -1 42 -1 99 1 128 0 15 0 75 -1 102
-1 11 -1 26 -1 33 1 6 1 18 2 25 0 15 0 75 -1 102 -1 11 -1 26 -1 33 1 6 1 18
2 25 0 15 0 75 -1 102 -1 11 -1 27 0 35 0 8 0 26 -1 40 0 14 0 32 0 40 3 74 2
141 -4 149 -3 6 -2 11 4 11 6 0 6 11 1 30 -5 17 -5 30 0 30 5 0 5 13 0 30 -5
17 -5 30 0 30 5 0 5 13 0 30 -5 17 -5 30 0 30 5 0 5 13 0 30 -5 17 -5 30 0 30
5 0 5 13 0 30 -5 17 -5 30 0 30 5 0 5 13 0 30 -5 17 -5 30 0 30 5 0 5 13 0 30
-5 17 -5 30 0 30 5 0 5 13 0 30 -5 17 -5 30 0 30 5 0 5 13 0 28 -4 16 -4 35 1
43 4 8 4 21 -1 29 -4 7 -4 23 0 36 5 12 6 24 4 27 -3 3 -7 34 -9 69 -11 221
-148 447 -331 545 -79 43 -106 69 -136 128 -23 45 -48 129 -54 180 -1 11 -3
340 -3 731 l-2 710 -24 37 c-32 47 -52 57 -113 57 -34 0 -57 -6 -75 -20z"/>
<path d="M1685 6224 c-16 -9 -40 -28 -52 -42 -22 -24 -41 -87 -30 -98 3 -4 2
-17 -3 -30 -5 -13 -6 -25 -2 -28 4 -2 6 -22 5 -43 -1 -21 -2 -63 -2 -93 0 -30
-1 -71 -2 -90 -1 -19 -1 -42 0 -50 3 -62 1 -182 -4 -190 -3 -6 -3 -10 2 -10 4
0 7 -33 5 -72 -1 -40 -2 -80 -2 -88 0 -8 0 -44 -1 -80 0 -36 0 -72 0 -80 0 -8
0 -35 0 -60 0 -25 0 -49 0 -55 1 -58 2 -222 0 -230 -1 -5 0 -14 1 -20 1 -5 2
-35 2 -65 1 -74 12 -101 54 -129 69 -48 180 -33 225 30 19 27 20 47 25 566 2
296 6 610 8 697 5 183 -1 210 -58 245 -48 30 -131 37 -171 15z"/>
<path d="M2165 6224 c-16 -9 -40 -28 -52 -42 -24 -26 -40 -83 -28 -101 3 -6 1
-11 -5 -11 -6 0 -8 -5 -4 -11 5 -9 9 -253 4 -269 -4 -13 -4 -90 0 -90 3 0 5
-31 5 -70 0 -38 -3 -70 -7 -70 -4 0 -4 -12 0 -27 6 -24 8 -198 2 -228 -1 -5
-1 -30 -1 -55 0 -25 1 -64 0 -87 0 -24 0 -51 0 -60 0 -10 1 -66 2 -125 0 -59
-2 -112 -6 -118 -3 -5 -3 -10 2 -10 4 0 7 -23 6 -51 -2 -70 11 -99 54 -129 72
-49 198 -26 231 43 10 21 14 154 18 574 3 302 6 616 8 698 4 169 -1 189 -59
225 -47 29 -130 36 -170 14z"/>
<path d="M2647 6200 c-18 -22 -34 -45 -36 -52 -1 -7 -3 -332 -5 -723 -2 -390
-7 -723 -10 -740 -33 -150 -74 -215 -166 -260 -97 -49 -178 -121 -227 -203
-46 -77 -92 -202 -108 -292 -6 -32 -17 -150 -16 -170 1 -8 1 -33 0 -55 -1 -22
-1 -44 0 -50 4 -48 5 -245 1 -245 -3 0 -5 -27 -5 -60 0 -33 2 -60 5 -60 6 0 3
-88 -4 -106 -3 -8 -2 -14 2 -14 8 0 6 -245 -2 -266 -3 -8 -2 -14 2 -14 8 0 6
-285 -2 -306 -3 -8 -2 -14 2 -14 7 0 6 -191 -2 -222 -2 -10 -1 -18 2 -18 8 0
6 -86 -2 -106 -3 -8 -2 -14 2 -14 4 0 7 -54 7 -120 0 -66 -2 -120 -5 -120 -3
0 -4 -30 -2 -67 1 -38 2 -87 2 -110 0 -24 0 -49 0 -55 0 -7 1 -66 2 -131 2
-64 1 -117 -2 -117 -3 0 -5 -27 -5 -60 0 -33 2 -60 5 -60 6 0 3 -88 -4 -106
-3 -8 -2 -14 2 -14 4 0 7 -54 7 -120 0 -66 -2 -120 -5 -120 -3 0 -4 -30 -2
-67 1 -38 2 -87 2 -110 0 -24 0 -49 0 -55 0 -7 1 -66 2 -131 2 -64 0 -117 -4
-117 -4 0 -5 -6 -3 -12 3 -7 7 -38 9 -68 17 -202 103 -337 263 -413 59 -28 81
-32 166 -35 84 -3 106 -1 155 19 120 48 195 114 263 232 23 40 48 79 56 87 7
8 109 159 226 335 116 176 214 322 217 325 3 3 30 39 60 80 30 41 58 77 62 78
5 2 8 10 8 17 0 7 4 15 8 17 4 2 47 59 94 128 146 212 166 237 204 255 58 27
98 21 270 -43 89 -33 204 -75 255 -92 52 -18 106 -39 122 -46 15 -8 27 -13 27
-10 0 3 126 -39 200 -67 8 -3 69 -24 135 -47 66 -23 170 -60 230 -82 61 -21
115 -40 120 -42 14 -3 165 -56 190 -67 20 -8 86 -26 135 -36 86 -18 200 0 284
45 57 30 145 113 169 158 68 129 87 206 69 292 -7 32 -12 67 -12 79 0 26 -61
146 -98 193 -16 19 -52 66 -82 104 -29 38 -59 76 -66 85 -7 9 -61 79 -120 156
-59 77 -111 142 -114 145 -4 3 -11 12 -16 21 -5 9 -21 32 -36 50 -15 19 -57
72 -93 119 -37 47 -74 94 -83 105 -10 11 -37 47 -62 80 -42 56 -177 231 -203
265 -7 8 -20 27 -29 41 -9 14 -23 33 -31 41 -26 26 -44 72 -42 108 2 30 25 82
45 100 3 3 61 82 128 175 68 94 131 180 140 192 9 12 24 31 32 43 20 30 111
152 125 167 15 18 23 29 104 138 41 55 109 143 151 195 42 52 109 138 150 190
40 52 76 97 79 100 33 28 111 181 111 217 0 12 4 24 8 27 5 3 8 47 7 98 -7
352 -323 555 -650 418 -28 -11 -58 -23 -70 -25 -5 -2 -71 -24 -145 -50 -74
-25 -142 -48 -150 -50 -8 -2 -80 -27 -160 -55 -80 -28 -152 -53 -160 -55 -8
-2 -15 -4 -15 -5 0 -1 -7 -3 -15 -5 -8 -2 -40 -13 -70 -24 -90 -32 -404 -143
-415 -146 -10 -2 -22 -6 -80 -28 -16 -6 -34 -12 -40 -14 -5 -1 -48 -15 -95
-32 -95 -35 -140 -38 -178 -15 -15 9 -66 73 -114 142 -48 70 -109 159 -135
197 -105 150 -239 343 -277 400 -23 33 -44 62 -47 65 -3 3 -14 21 -25 40 -10
19 -23 40 -29 47 -5 6 -21 30 -34 52 -14 22 -27 39 -29 37 -2 -3 -4 -97 -3
-210 0 -180 -6 -237 -22 -193 -11 30 -15 -11 -21 -188 -5 -190 -10 -258 -22
-305 -3 -14 -8 -38 -11 -55 -30 -195 -111 -356 -244 -485 -79 -77 -82 -79
-135 -109 -33 -19 -74 -66 -80 -91 0 -3 -4 -12 -7 -20 -21 -49 -23 -241 -23
-1699 1 -1274 4 -1605 14 -1608 6 -3 12 -10 12 -17 0 -18 51 -42 96 -45 l42
-2 93 136 c52 75 100 143 107 150 6 8 12 16 12 20 0 5 39 64 50 75 3 3 72 106
154 230 82 124 153 227 158 228 4 2 8 8 8 13 0 5 24 44 53 87 30 42 57 85 60
95 4 9 11 17 17 17 5 0 10 5 10 11 0 21 65 105 129 167 120 116 274 163 422
128 63 -15 309 -99 386 -132 17 -8 37 -14 45 -14 8 0 18 -3 22 -7 4 -4 24 -13
44 -19 20 -7 129 -44 242 -84 113 -39 210 -73 215 -74 6 -2 17 -6 25 -9 15 -6
311 -111 360 -127 14 -5 83 -29 153 -53 127 -45 128 -45 169 -29 24 10 52 31
68 54 31 42 39 36 35 -29 -6 -97 -101 -158 -192 -122 -31 12 -338 119 -483
168 -52 18 -104 36 -115 41 -11 5 -67 24 -125 44 -166 56 -454 155 -470 163
-8 3 -17 7 -20 8 -13 5 -47 18 -65 25 -17 7 -87 31 -105 35 -3 1 -12 4 -20 8
-8 3 -47 15 -87 27 -113 32 -161 33 -289 6 -51 -11 -119 -53 -182 -114 -51
-49 -114 -134 -237 -317 -243 -362 -409 -607 -485 -715 -93 -132 -180 -260
-180 -265 0 -14 -67 -99 -95 -121 -30 -23 -41 -25 -90 -20 -82 8 -121 33 -153
99 -17 34 -17 127 -16 1719 1 926 4 1697 8 1713 29 128 60 189 131 253 28 26
72 58 97 71 124 63 218 200 270 390 20 73 21 101 23 831 1 835 4 792 -63 824
-18 9 -57 16 -87 16 -50 0 -56 -3 -88 -40z m3101 -1392 c13 -45 13 -77 0 -102
-10 -19 -366 -496 -378 -506 -3 -3 -27 -35 -53 -71 -40 -58 -241 -328 -297
-399 -122 -157 -200 -262 -200 -269 0 -5 -4 -11 -8 -13 -17 -6 -81 -110 -101
-163 -12 -31 -22 -75 -23 -100 -4 -67 -18 -38 -22 46 -4 93 15 187 50 247 22
39 186 265 204 282 3 3 19 25 35 50 17 25 35 50 40 56 6 7 17 22 27 35 22 32
280 380 295 399 24 29 226 296 317 417 50 68 94 123 98 123 3 0 11 -15 16 -32z"/>
<path d="M1235 3828 c-16 -5 -37 -12 -45 -15 -8 -4 -17 -7 -20 -8 -159 -44
-756 -248 -798 -272 -66 -38 -129 -109 -170 -192 l-37 -75 0 -146 0 -146 37
-75 c56 -111 122 -174 227 -218 29 -13 61 -24 70 -27 9 -2 36 -10 61 -18 25
-8 115 -37 200 -64 85 -28 235 -78 334 -111 98 -34 181 -59 184 -56 7 7 4 133
-3 146 -4 5 -3 9 2 9 4 0 7 46 5 102 -7 228 -7 410 0 414 4 3 4 12 1 22 -4 9
-6 32 -5 52 1 30 2 76 1 143 0 9 1 42 1 72 1 30 -1 59 -4 64 -4 5 -2 12 3 16
6 3 7 15 2 28 -4 12 -6 28 -3 36 3 9 0 11 -8 6 -10 -6 -11 -4 -4 6 10 15 14
308 5 313 -3 2 -19 -1 -36 -6z m-120 -368 c-3 -5 -12 -10 -18 -10 -7 0 -6 4 3
10 19 12 23 12 15 0z m-125 -46 c-166 -62 -313 -115 -374 -134 -95 -30 -140
-90 -133 -176 4 -50 -8 -50 -17 1 -19 100 27 159 159 200 50 16 93 30 98 31 4
1 8 2 10 3 12 7 326 109 337 110 8 0 -28 -16 -80 -35z"/>
</g>
</svg>
